<?xml version="1.0" encoding="UTF-8"?>
<svg id="Layer_2" xmlns="http://www.w3.org/2000/svg" viewBox="0 0 354.59 295.41">
  <defs>
    <style>
      .cls-1 {
        fill: "currentColor";
      }
    </style>
  </defs>
  <g id="Layer_1-2" data-name="Layer_1">
    <path class="cls-1" d="M27.77,273.87c-2.3,0-3.54-.83-4.45-1.9-2.94-3.48-.69-9.34,8.03-20.91,1-1.32,2.88-1.59,4.2-.59,1.32,1,1.59,2.88.59,4.2-6.29,8.35-7.67,11.9-7.95,13.22,3.59-.01,18.94-5.02,84.04-50.27,1.36-.95,3.23-.61,4.18.75.95,1.36.61,3.23-.75,4.18-60.16,41.82-80.09,51.33-87.88,51.33ZM28.13,268.53h.01-.01Z"/>
    <path class="cls-1" d="M352.24,4.22c-4.95-6.03-15.41-5.61-32.93,1.31-14.76,5.83-34.52,16.46-57.14,30.75-1.87,1.18-2.43,3.65-1.25,5.52,1.18,1.87,3.65,2.42,5.52,1.25C322.36,7.75,342.97,5.53,346.06,9.3c3.2,3.9-3.47,24.51-51.63,74.61-11.18,11.62-23.72,23.91-37.29,36.52-18.52,17.2-38.56,34.67-59.58,51.92-9.45,7.76-19.11,15.46-28.69,22.9-6.85,5.32-13.72,10.54-20.43,15.54-36.1,26.87-70.19,49.04-96,62.42-30.14,15.62-41.71,15.49-43.79,12.95-1.94-2.36-.23-12.78,18.44-36.85,16.26-20.96,41.13-47.11,71.94-75.63,1.37-1.26,1.68-3.3.76-4.92-2.24-3.92-4.17-8.03-5.76-12.22-18.47-48.86,10.8-105.36,65.24-125.94,22.7-8.58,47.3-9.86,69.7-3.69l-6.61,32.63c-20.74-10.99-46.94-12.18-70.63-.95-38.09,18.05-55.48,61.46-39.49,97.69.26.57.52,1.15.79,1.72,1.48,3.13,3.17,6.08,5.04,8.88,13.94.71,32.12-.05,52.57-5.39,44.49-11.61,73.78-38.14,87.96-53.4-1.09-5.6-2.88-11.14-5.42-16.51-5.44-11.48-13.65-20.79-23.55-27.62l7.91-39.05c.41-2.01-.77-4-2.73-4.61-25-7.83-52.84-6.82-78.37,2.83-58.57,22.14-89.92,83.26-69.89,136.25,1.36,3.59,2.95,7.13,4.76,10.56-30.07,27.99-54.42,53.7-70.54,74.47-18.81,24.25-24.63,39.13-18.31,46.83,2.44,2.97,6.24,4.19,10.86,4.19,11.89,0,29.22-8.07,42.8-15.11,26.18-13.57,60.67-35.98,97.1-63.1,6.75-5.03,13.67-10.29,20.56-15.64,1.17-.91,2.35-1.84,3.52-2.75,5.65.18,11.38-.25,17.09-1.32l-4.21,20.77c-.25,1.23.09,2.5.92,3.44.76.86,1.86,1.35,3,1.35.1,0,.2,0,.3-.01,11.79-.88,23.46-3.49,34.68-7.73,54.97-20.78,86.51-76.45,72.7-127.53,42.49-44.46,59.48-72.58,50.46-83.57ZM226.25,207.84c-8.82,3.34-17.94,5.59-27.16,6.71l3.88-19.13c3.87-1.17,7.71-2.64,11.49-4.43,25.92-12.28,42.24-36.31,45-61.82,1.04-.96,2.09-1.92,3.12-2.88,11.7-10.87,22.64-21.5,32.62-31.69,9.63,45.81-19.51,94.55-68.94,113.24Z"/>
  </g>
</svg>